<svg width="32" height="32" viewBox="0 0 32 32" fill="none" xmlns="http://www.w3.org/2000/svg">
<g clip-path="url(#clip0_77_12)">
<rect width="30.3576" height="31.1831" transform="translate(0.792603 0.107056)" fill="#323232"/>
<path fill-rule="evenodd" clip-rule="evenodd" d="M15.9714 0.107056C7.58511 0.107056 0.792603 7.08427 0.792603 15.6986C0.792603 22.5979 5.13753 28.4252 11.1711 30.4911C11.93 30.6275 12.2146 30.1598 12.2146 29.7505C12.2146 29.3802 12.1957 28.1524 12.1957 26.8466C8.38199 27.5677 7.39537 25.8916 7.0918 25.0146C6.92104 24.5663 6.18107 23.1825 5.53597 22.8123C5.00471 22.5199 4.24578 21.7988 5.517 21.7793C6.71233 21.7598 7.56613 22.9097 7.85074 23.3774C9.21683 25.7357 11.3988 25.073 12.2716 24.6637C12.4044 23.6503 12.8028 22.9682 13.2392 22.5784C9.86193 22.1886 6.33286 20.8438 6.33286 14.88C6.33286 13.1845 6.92104 11.7812 7.88868 10.6898C7.7369 10.3 7.20564 8.7019 8.04047 6.55806C8.04047 6.55806 9.31169 6.14878 12.2146 8.15619C13.4289 7.80538 14.7191 7.62998 16.0093 7.62998C17.2995 7.62998 18.5897 7.80538 19.804 8.15619C22.707 6.12929 23.9782 6.55806 23.9782 6.55806C24.813 8.7019 24.2818 10.3 24.13 10.6898C25.0976 11.7812 25.6858 13.165 25.6858 14.88C25.6858 20.8633 22.1378 22.1886 18.7605 22.5784C19.3107 23.0656 19.7851 24.0011 19.7851 25.4628C19.7851 27.5482 19.7661 29.2243 19.7661 29.7505C19.7661 30.1598 20.0507 30.647 20.8096 30.4911C23.8228 29.4461 26.4412 27.4568 28.2961 24.8032C30.1511 22.1497 31.1493 18.9654 31.1502 15.6986C31.1502 7.08427 24.3577 0.107056 15.9714 0.107056Z" fill="#D1D1D1"/>
</g>
<defs>
<clipPath id="clip0_77_12">
<rect width="30.3576" height="31.1831" fill="white" transform="translate(0.792603 0.107056)"/>
</clipPath>
</defs>
</svg>
