<svg width="31" height="32" viewBox="0 0 31 32" fill="none" xmlns="http://www.w3.org/2000/svg">
<path d="M28.4944 0.416504H3.01686C1.66975 0.416504 0.576874 1.5391 0.576874 2.92285V29.0933C0.576874 30.477 1.66975 31.5996 3.01686 31.5996H28.4944C29.8416 31.5996 30.9344 30.477 30.9344 29.0933V2.92285C30.9344 1.5391 29.8416 0.416504 28.4944 0.416504ZM28.4944 29.105C11.5018 29.1011 3.00548 29.0972 3.00548 29.0933C3.00927 11.6385 3.01307 2.91115 3.01686 2.91115C20.0095 2.91505 28.5058 2.91895 28.5058 2.92285C28.502 20.3776 28.4982 29.105 28.4944 29.105ZM5.07738 12.1063H9.58169V26.9884H5.07738V12.1063ZM7.33143 10.0716C8.76962 10.0716 9.94218 8.87102 9.94218 7.38982C9.94218 7.03765 9.87465 6.68893 9.74345 6.36356C9.61225 6.0382 9.41994 5.74257 9.17751 5.49354C8.93508 5.24452 8.64727 5.04698 8.33052 4.91221C8.01377 4.77744 7.67428 4.70808 7.33143 4.70808C6.98858 4.70808 6.64909 4.77744 6.33234 4.91221C6.01559 5.04698 5.72778 5.24452 5.48535 5.49354C5.24292 5.74257 5.05062 6.0382 4.91941 6.36356C4.78821 6.68893 4.72068 7.03765 4.72068 7.38982C4.71689 8.87102 5.88565 10.0716 7.33143 10.0716ZM16.9054 19.6253C16.9054 17.6841 17.2659 15.8054 19.6073 15.8054C21.9144 15.8054 21.9486 18.0233 21.9486 19.75V26.9884H26.4491V18.8262C26.4491 14.8192 25.6067 11.736 21.0493 11.736C18.8597 11.736 17.3912 12.9716 16.7878 14.141H16.7271V12.1063H12.4049V26.9884H16.9054V19.6253Z" fill="#323232" fill-opacity="0.9"/>
</svg>
