<svg width="31" height="30" viewBox="0 0 31 30" fill="none" xmlns="http://www.w3.org/2000/svg">
<path d="M27.9928 0.185913H2.73431C2.02281 0.185913 1.42001 0.55468 0.925905 1.29221C0.431804 2.02975 0.184753 2.88075 0.184753 3.84522V25.6308C0.184753 26.5953 0.431804 27.4463 0.925905 28.1838C1.42001 28.9214 2.02281 29.2901 2.73431 29.2901H27.9928C28.7043 29.2901 29.3071 28.9214 29.8012 28.1838C30.2953 27.4463 30.5423 26.5953 30.5423 25.6308V3.84522C30.5423 2.88075 30.2953 2.02975 29.8012 1.29221C29.3071 0.55468 28.7043 0.185913 27.9928 0.185913ZM25.6211 3.84522L15.3635 12.5254L5.106 3.84522H25.6211ZM2.73431 25.6308V6.05782L14.7113 16.3549C14.7904 16.4684 15.0078 16.5251 15.3635 16.5251C15.7193 16.5251 15.9367 16.4684 16.0158 16.3549L27.9928 6.05782V25.6308H2.73431Z" fill="#323232"/>
</svg>
