<svg width="80" height="70" viewBox="0 0 80 70" fill="none" xmlns="http://www.w3.org/2000/svg">
<path d="M0 34.8743C0 40.754 5.89946 46.2429 15.2004 49.3368C13.3431 58.4367 14.8676 65.7712 19.9594 68.6292C25.1933 71.5666 32.9905 69.5333 40.3911 63.2375C47.605 69.2791 54.896 71.6568 59.9831 68.7907C65.2118 65.8448 66.8023 58.0129 64.8936 48.6289C74.5811 45.5118 80 40.8314 80 34.8743C80 29.1309 74.0896 24.1621 64.9141 21.088C66.9688 11.3162 65.2278 4.15968 59.9251 1.18371C54.8129 -1.68531 47.4373 0.815333 40.1173 7.01512C32.5021 0.434536 25.1993 -1.5746 19.9018 1.41004C14.7945 4.28722 13.3371 11.755 15.2004 21.0234C6.21352 24.0728 0 29.1539 0 34.8743Z" fill="white"/>
<path d="M62.9698 24.1406C62.2327 23.8937 61.469 23.6601 60.6827 23.4392C60.8119 22.9259 60.9305 22.4192 61.036 21.9211C62.7673 13.7423 61.6353 7.15349 57.77 4.98416C54.0636 2.90406 48.0021 5.0729 41.8803 10.2578C41.2916 10.7564 40.7013 11.2843 40.1112 11.8375C39.718 11.4715 39.3255 11.1178 38.934 10.7794C32.5181 5.23536 26.0872 2.89901 22.2257 5.07462C18.5228 7.16075 17.4263 13.3549 18.9847 21.106C19.1352 21.8546 19.3111 22.6192 19.51 23.3965C18.5998 23.648 17.7212 23.916 16.8805 24.2012C9.35856 26.7534 4.55473 30.7534 4.55473 34.9024C4.55473 39.1875 9.71164 43.4855 17.5463 46.0917C18.1646 46.2973 18.8061 46.4918 19.4672 46.6764C19.2526 47.5171 19.066 48.341 18.9093 49.1446C17.4234 56.7611 18.5838 62.8089 22.2768 64.8819C26.0913 67.0226 32.4931 64.8222 38.7268 59.5191C39.2195 59.0999 39.714 58.6553 40.2093 58.1894C40.8514 58.7911 41.4924 59.3606 42.1301 59.8947C48.1682 64.9515 54.1318 66.9935 57.8213 64.9147C61.632 62.7678 62.8705 56.271 61.2626 48.3666C61.1398 47.7629 60.9969 47.1462 60.8365 46.5185C61.286 46.3891 61.7274 46.2556 62.1577 46.1168C70.3026 43.4905 75.6019 39.2447 75.6019 34.9024C75.6019 30.7383 70.6432 26.7114 62.9698 24.1406Z" fill="#53C1DE"/>
<path d="M61.2032 43.3131C60.8147 43.4382 60.4161 43.5592 60.0099 43.6765C59.1108 40.9062 57.8972 37.9604 56.4122 34.9168C57.8293 31.9458 58.9959 29.0376 59.8699 26.2853C60.5967 26.49 61.3021 26.7059 61.9819 26.9337C68.5564 29.1363 72.5668 32.3931 72.5668 34.9024C72.5668 37.5754 68.2357 41.0453 61.2032 43.3131ZM58.2852 48.9403C58.9962 52.4355 59.0977 55.5956 58.6268 58.066C58.2037 60.2858 57.3527 61.7658 56.3005 62.3585C54.0615 63.6198 49.2733 61.9803 44.1095 57.6557C43.5175 57.1599 42.9212 56.6306 42.3231 56.0703C44.325 53.9395 46.3257 51.4624 48.2785 48.7113C51.7131 48.4147 54.958 47.9297 57.9006 47.2677C58.0456 47.8367 58.1743 48.3947 58.2852 48.9403ZM28.7763 62.1405C26.5888 62.8924 24.8465 62.914 23.7933 62.3229C21.5523 61.065 20.6206 56.2092 21.8914 49.6955C22.037 48.9496 22.2103 48.1833 22.4099 47.4C25.3204 48.0264 28.5415 48.4771 31.9843 48.7487C33.9502 51.4407 36.0088 53.9152 38.0833 56.0818C37.63 56.5076 37.1785 56.913 36.7296 57.2951C33.9731 59.64 31.2108 61.3038 28.7763 62.1405ZM18.5279 43.2967C15.0636 42.1443 12.2026 40.6466 10.2415 39.0123C8.47941 37.5436 7.58974 36.0856 7.58974 34.9024C7.58974 32.3847 11.4467 29.1733 17.8795 26.9905C18.6601 26.7257 19.4771 26.4761 20.3251 26.2416C21.2141 29.0561 22.3804 31.9987 23.7878 34.9743C22.3621 37.9941 21.1793 40.9836 20.2816 43.8311C19.6771 43.662 19.0914 43.484 18.5279 43.2967ZM21.9633 20.5388C20.6281 13.8979 21.5148 8.8882 23.7463 7.6311C26.1231 6.29192 31.3791 8.20131 36.9187 12.9883C37.2728 13.2943 37.6282 13.6145 37.9847 13.9459C35.9205 16.103 33.8808 18.5589 31.9324 21.235C28.5909 21.5364 25.3924 22.0206 22.4517 22.669C22.2668 21.9452 22.103 21.234 21.9633 20.5388ZM52.6098 27.9035C51.9068 26.7217 51.1851 25.5679 50.4493 24.4456C52.7162 24.7245 54.888 25.0947 56.9276 25.5477C56.3153 27.4576 55.5521 29.4545 54.6537 31.5016C54.0093 30.3109 53.3276 29.1103 52.6098 27.9035ZM40.1122 16.0569C41.5122 17.5329 42.9141 19.1809 44.2931 20.9689C42.9035 20.9051 41.4967 20.8718 40.0783 20.8718C38.6733 20.8718 37.2769 20.9043 35.896 20.9671C37.2763 19.1957 38.6904 17.5499 40.1122 16.0569ZM27.5346 27.9239C26.8324 29.109 26.1634 30.3031 25.529 31.4994C24.6452 29.4594 23.8891 27.4534 23.2714 25.5165C25.2985 25.075 27.4601 24.714 29.7125 24.4404C28.9664 25.5731 28.2387 26.7354 27.5346 27.9237V27.9239ZM29.7774 45.5752C27.4503 45.3225 25.2561 44.9801 23.2295 44.5508C23.8571 42.5793 24.6299 40.5304 25.5324 38.4465C26.1684 39.642 26.8401 40.8365 27.5466 42.0242H27.5467C28.2664 43.2342 29.0121 44.4194 29.7774 45.5752ZM40.1962 53.9563C38.7577 52.4458 37.3228 50.7749 35.9215 48.9776C37.2819 49.0296 38.6688 49.0561 40.0783 49.0561C41.5265 49.0561 42.958 49.0244 44.3671 48.9633C42.9836 50.793 41.5867 52.4664 40.1962 53.9563ZM54.6827 38.3403C55.6323 40.4468 56.4328 42.4849 57.0684 44.4228C55.0084 44.8802 52.7843 45.2485 50.441 45.5223C51.1785 44.3848 51.9066 43.2112 52.622 42.0039C53.3457 40.7825 54.0329 39.5593 54.6827 38.3403ZM49.9929 40.5282C48.8823 42.4023 47.7421 44.1913 46.5846 45.88C44.4763 46.0268 42.2983 46.1023 40.0783 46.1023C37.8674 46.1023 35.7168 46.0355 33.6458 45.9047C32.4416 44.1938 31.2766 42.3995 30.1731 40.5443H30.1734C29.0728 38.6943 28.0598 36.8286 27.1419 34.9733C28.0596 33.1138 29.0699 31.246 30.1641 29.3992L30.1639 29.3996C31.2611 27.5479 32.4158 25.7624 33.6089 24.0622C35.7218 23.9067 37.8885 23.8256 40.0782 23.8256H40.0783C42.2779 23.8256 44.4474 23.9074 46.5597 24.0642C47.7345 25.7519 48.8814 27.5317 49.9829 29.3836C51.0969 31.2563 52.1203 33.1117 53.0457 34.9314C52.1231 36.7823 51.102 38.6564 49.9929 40.5282ZM56.254 7.54323C58.6331 8.87848 59.5583 14.2635 58.0635 21.325C57.9682 21.7756 57.8608 22.2345 57.7442 22.6996C54.7966 22.0377 51.5958 21.5452 48.2447 21.2392C46.2925 18.5336 44.2695 16.074 42.2388 13.9445C42.7848 13.4334 43.33 12.946 43.8729 12.4861C49.118 8.04365 54.0204 6.2897 56.254 7.54323Z" fill="white"/>
<path d="M40.0794 28.7283C43.5832 28.7283 46.4237 31.4926 46.4237 34.9026C46.4237 38.3125 43.5832 41.0769 40.0794 41.0769C36.5756 41.0769 33.7352 38.3125 33.7352 34.9026C33.7352 31.4926 36.5756 28.7283 40.0794 28.7283Z" fill="#53C1DE"/>
</svg>
